<mxfile host="app.diagrams.net" agent="agent" version="20.2.8"><diagram name="Parent Payment"><mxGraphModel dx="1280" dy="720" page="1" pageScale="1" pageWidth="1920" pageHeight="1080"><root><mxCell id="0"/><mxCell id="1" parent="0"/><mxCell id="header" value="Parent Invoice Payment" style="shape=rectangle;whiteSpace=wrap;html=1;fontSize=18;fontStyle=1;" vertex="1"><mxGeometry x="20" y="20" width="1880" height="60" as="geometry"/></mxCell><mxCell id="invoice" value="Invoice Summary" style="shape=rectangle;whiteSpace=wrap;html=1;rounded=1;" vertex="1"><mxGeometry x="20" y="100" width="700" height="200" as="geometry"/></mxCell><mxCell id="methods" value="Payment Methods" style="shape=rectangle;whiteSpace=wrap;html=1;rounded=1;" vertex="1"><mxGeometry x="740" y="100" width="1160" height="200" as="geometry"/></mxCell><mxCell id="checkout" value="Hosted Checkout" style="shape=rectangle;whiteSpace=wrap;html=1;" vertex="1"><mxGeometry x="20" y="320" width="1880" height="660" as="geometry"/></mxCell></root></mxGraphModel></diagram></mxfile>
